<svg width="102" height="85" viewBox="0 0 102 85" fill="none" xmlns="http://www.w3.org/2000/svg">
<path d="M77 35.75C90.3929 35.75 101.25 46.6071 101.25 60C101.25 73.3929 90.3929 84.25 77 84.25C63.6071 84.25 52.75 73.3929 52.75 60C52.75 46.6071 63.6071 35.75 77 35.75ZM77 73.25C75.2477 73.25 73.5078 73.3812 71.8271 73.6377C73.2238 75.5764 74.9442 77.4249 77 79.1338C79.0556 77.4251 80.7753 75.5762 82.1719 73.6377C80.4915 73.3813 78.7519 73.25 77 73.25ZM67.1436 74.7383C66.3617 74.9937 65.6076 75.2806 64.8877 75.5996C66.3922 76.7695 68.0703 77.7259 69.877 78.4248C68.8578 77.2373 67.9468 76.0055 67.1436 74.7383ZM86.8555 74.7383C86.0522 76.0055 85.1413 77.2373 84.1221 78.4248C85.9288 77.7259 87.6068 76.7694 89.1113 75.5996C88.3914 75.2806 87.6374 74.9936 86.8555 74.7383ZM53.75 0C54.9926 0 56 1.00736 56 2.25V9.5H64.75C65.9926 9.5 67 10.5074 67 11.75V35.25C67 36.4926 65.9926 37.5 64.75 37.5C63.5074 37.5 62.5 36.4926 62.5 35.25V14H22.75C21.225 14 19.7629 14.6062 18.6846 15.6846C17.6062 16.7629 17 18.225 17 19.75V69.5H34.5V57.75C34.5 56.5074 35.5074 55.5 36.75 55.5H48.75C49.9926 55.5 51 56.5074 51 57.75V69.5H52.25C53.4926 69.5 54.5 70.5074 54.5 71.75C54.5 72.9926 53.4926 74 52.25 74H2.25C1.00736 74 0 72.9926 0 71.75C0 70.5074 1.00736 69.5 2.25 69.5H12.5V19.75C12.5 17.0315 13.5797 14.4242 15.502 12.502C17.4242 10.5797 20.0315 9.5 22.75 9.5H51.5V4.5H29.75C28.5074 4.5 27.5 3.49264 27.5 2.25C27.5 1.00736 28.5074 0 29.75 0H53.75ZM57.3779 62.25C57.8056 66.0209 59.2948 69.4694 61.54 72.29C61.6761 72.174 61.827 72.0709 61.9941 71.9873C62.9539 71.5075 63.9609 71.0822 65.0039 70.7109C63.8179 67.9773 63.096 65.1324 62.8486 62.25H57.3779ZM91.1514 62.25C90.904 65.1325 90.1812 67.9772 88.9951 70.7109C90.0385 71.0823 91.0459 71.5073 92.0059 71.9873C92.1728 72.0708 92.323 72.1742 92.459 72.29C94.7045 69.4693 96.1944 66.0212 96.6221 62.25H91.1514ZM67.3691 62.25C67.6235 64.6963 68.2927 67.1381 69.3926 69.502C71.8679 68.9983 74.4443 68.75 77 68.75C79.5554 68.75 82.1314 68.9984 84.6064 69.502C85.7064 67.138 86.3765 64.6964 86.6309 62.25H67.3691ZM39 69.5H46.5V60H39V69.5ZM61.54 47.709C59.2945 50.5297 57.8056 53.9788 57.3779 57.75H62.8486C63.096 54.8673 63.8177 52.0219 65.0039 49.2881C63.961 48.9168 62.9538 48.4925 61.9941 48.0127C61.8268 47.929 61.6762 47.8252 61.54 47.709ZM84.6064 50.4971C82.1313 51.0007 79.5554 51.25 77 51.25C74.4442 51.25 71.868 51.0008 69.3926 50.4971C68.2925 52.8611 67.6235 55.3035 67.3691 57.75H86.6309C86.3764 55.3033 85.7066 52.8613 84.6064 50.4971ZM92.459 47.709C92.3229 47.825 92.173 47.9291 92.0059 48.0127C91.046 48.4926 90.0384 48.9168 88.9951 49.2881C90.1814 52.0221 90.904 54.8672 91.1514 57.75H96.6221C96.1944 53.9786 94.7047 50.5298 92.459 47.709ZM32.75 41.5C33.9926 41.5 35 42.5074 35 43.75V51.75C35 52.9926 33.9926 54 32.75 54H24.75C23.5074 54 22.5 52.9926 22.5 51.75V43.75C22.5 42.5074 23.5074 41.5 24.75 41.5H32.75ZM50.75 41.5C51.9926 41.5 53 42.5074 53 43.75V51.75C53 52.9926 51.9926 54 50.75 54H42.75C41.5074 54 40.5 52.9926 40.5 51.75V43.75C40.5 42.5074 41.5074 41.5 42.75 41.5H50.75ZM27 49.5H30.5V46H27V49.5ZM45 49.5H48.5V46H45V49.5ZM77 40.8652C74.9442 42.574 73.2238 44.4227 71.8271 46.3613C73.5079 46.6178 75.2477 46.75 77 46.75C78.752 46.75 80.4915 46.6177 82.1719 46.3613C80.7753 44.4229 79.0556 42.5739 77 40.8652ZM69.877 41.5742C68.0703 42.2731 66.3922 43.2297 64.8877 44.3994C65.6076 44.7184 66.3616 45.0053 67.1436 45.2607C67.9468 43.9935 68.8578 42.7617 69.877 41.5742ZM84.1221 41.5742C85.1413 42.7617 86.0522 43.9935 86.8555 45.2607C87.6374 45.0054 88.3914 44.7184 89.1113 44.3994C87.6068 43.2297 85.9288 42.273 84.1221 41.5742ZM32.75 23.5C33.9926 23.5 35 24.5074 35 25.75V33.75C35 34.9926 33.9926 36 32.75 36H24.75C23.5074 36 22.5 34.9926 22.5 33.75V25.75C22.5 24.5074 23.5074 23.5 24.75 23.5H32.75ZM50.75 23.5C51.9926 23.5 53 24.5074 53 25.75V33.75C53 34.9926 51.9926 36 50.75 36H42.75C41.5074 36 40.5 34.9926 40.5 33.75V25.75C40.5 24.5074 41.5074 23.5 42.75 23.5H50.75ZM27 31.5H30.5V28H27V31.5ZM45 31.5H48.5V28H45V31.5Z" fill="#1B2E4C"/>
</svg>
