<svg width="80" height="80" viewBox="0 0 80 80" fill="none" xmlns="http://www.w3.org/2000/svg">
<path d="M44.75 1C44.8263 1 44.9023 1.00309 44.9775 1.01074C45.0194 1.01495 45.0604 1.02381 45.1016 1.03027C45.1318 1.03507 45.1624 1.03793 45.1924 1.04395C45.2564 1.05671 45.3189 1.07373 45.3809 1.0918C45.3889 1.09414 45.3973 1.09522 45.4053 1.09766C45.4557 1.113 45.5048 1.13166 45.5537 1.15039C45.5741 1.1582 45.5951 1.16445 45.6152 1.17285C45.8614 1.27549 46.0837 1.42218 46.2764 1.60059C46.2976 1.62028 46.3202 1.6386 46.3408 1.65918L64.3408 19.6592C64.5467 19.8651 64.7122 20.1109 64.8262 20.3838C64.8346 20.4039 64.8408 20.4249 64.8486 20.4453C64.8933 20.5617 64.9301 20.6819 64.9551 20.8066C64.9842 20.9516 65 21.0999 65 21.25V34.75C65 35.9926 63.9926 37 62.75 37C61.5074 37 60.5 35.9926 60.5 34.75V23.5H44.75C43.5074 23.5 42.5 22.4926 42.5 21.25V5.5H10.75C9.22501 5.5 7.7629 6.10624 6.68457 7.18457C5.60624 8.2629 5 9.72501 5 11.25V69.25C5 70.775 5.60624 72.2371 6.68457 73.3154C7.76291 74.3938 9.22501 75 10.75 75H43.25C44.4926 75 45.5 76.0074 45.5 77.25C45.5 78.4926 44.4926 79.5 43.25 79.5H10.75C8.03153 79.5 5.4242 78.4203 3.50195 76.498C1.57971 74.5758 0.5 71.9685 0.5 69.25V11.25C0.5 8.53153 1.57971 5.9242 3.50195 4.00195C5.4242 2.07971 8.03153 1 10.75 1H44.75ZM58.75 39C69.9338 39 79 48.0662 79 59.25C79 70.4338 69.9338 79.5 58.75 79.5C47.5662 79.5 38.5 70.4338 38.5 59.25C38.5 48.0662 47.5662 39 58.75 39ZM58.75 43.5C50.0515 43.5 43 50.5515 43 59.25C43 67.9485 50.0515 75 58.75 75C67.4485 75 74.5 67.9485 74.5 59.25C74.5 50.5515 67.4485 43.5 58.75 43.5ZM67.1592 51.6592C68.0379 50.7805 69.4621 50.7805 70.3408 51.6592C71.2195 52.5379 71.2195 53.9621 70.3408 54.8408L58.3408 66.8408C57.4621 67.7195 56.0379 67.7195 55.1592 66.8408L49.1592 60.8408C48.2805 59.9621 48.2805 58.5379 49.1592 57.6592C50.0379 56.7805 51.4621 56.7805 52.3408 57.6592L56.75 62.0684L67.1592 51.6592ZM33.75 55C34.9926 55 36 56.0074 36 57.25C36 58.4926 34.9926 59.5 33.75 59.5H16.75C15.5074 59.5 14.5 58.4926 14.5 57.25C14.5 56.0074 15.5074 55 16.75 55H33.75ZM36.75 43C37.9926 43 39 44.0074 39 45.25C39 46.4926 37.9926 47.5 36.75 47.5H16.75C15.5074 47.5 14.5 46.4926 14.5 45.25C14.5 44.0074 15.5074 43 16.75 43H36.75ZM44.75 31C45.9926 31 47 32.0074 47 33.25C47 34.4926 45.9926 35.5 44.75 35.5H16.75C15.5074 35.5 14.5 34.4926 14.5 33.25C14.5 32.0074 15.5074 31 16.75 31H44.75ZM47 19H57.3184L47 8.68164V19Z" fill="#1B2E4C"/>
</svg>
