<svg width="103" height="98" viewBox="0 0 103 98" fill="none" xmlns="http://www.w3.org/2000/svg">
<path d="M63.7344 53.3008C64.0276 53.1725 64.4056 53.2895 64.8271 53.6348C65.757 54.4037 76.1374 63.3866 76.2236 63.4961C76.34 63.6566 76.412 63.8577 76.4121 64.0303C76.4121 64.3556 76.1794 64.6377 73.8057 67.1641C73.2681 67.7378 72.7459 68.3157 72.6445 68.4492C72.3031 68.9071 72.2346 69.1085 72.0137 70.3174C71.7365 71.8356 71.186 73.2061 70.4229 74.2705C70.1865 74.595 70.1457 74.6717 70.1895 74.7119C70.5509 75.0292 70.8646 75.2868 71.1377 75.4756C72.2301 76.2347 72.6083 77.1872 72.3594 78.5527C72.0018 80.5528 70.8484 81.8908 68.9648 82.4854C68.4631 82.6459 68.3537 82.7022 68.2773 82.8506C68.2451 82.9155 68.1573 83.2811 68.0811 83.6621C67.6392 85.8832 66.6707 87.2651 64.9639 88.1328C64.6346 88.2975 64.5663 88.4545 64.4619 89.2773C64.2892 90.651 63.8745 91.568 63.0713 92.3633C62.465 92.9614 61.794 93.2744 60.8828 93.3789C60.2924 93.4432 60.1877 93.5285 60.0029 94.0986C59.7057 95.0143 59.191 95.7857 58.4883 96.3721C57.2312 97.4243 55.8292 97.8093 54.5801 97.4521C53.9857 97.2794 53.6355 97.0829 52.4912 96.2598C51.4629 95.5247 50.779 95.0178 48.0918 93.0215C47.466 92.5552 46.9426 92.1757 46.9229 92.1699C46.9049 92.1722 46.6844 92.4048 46.4287 92.6885C45.694 93.5075 45.3277 93.8329 44.9463 94.0137C44.5569 94.1983 44.2993 94.2587 43.8818 94.2588C43.1028 94.2586 42.332 93.825 41.9062 93.1465C41.4322 92.3993 41.384 91.664 41.7656 91.0654C41.8391 90.9476 42.4132 90.2688 43.0391 89.5547C44.4085 87.9925 45.2043 87.0646 45.9072 86.2051C46.5136 85.4662 46.5419 85.437 46.8672 85.2402C47.3612 84.9433 48.0482 84.8391 48.6143 84.9756C49.6021 85.2167 50.3137 86.0963 50.3701 87.1484C50.4183 88.0281 50.225 88.3867 48.9639 89.7764C48.5954 90.1809 48.2585 90.5535 48.2168 90.6113L48.1367 90.7119L48.8672 91.2939C49.8632 92.0851 49.7834 92.0256 52.4141 93.9053C54.0832 95.0969 54.8111 95.5953 54.9648 95.6484C55.2781 95.7568 55.7126 95.7447 56.0459 95.6162C57.0496 95.2307 57.765 94.6768 58.1064 94.0264C58.3713 93.5205 58.4402 93.102 58.2998 92.873C58.2596 92.8048 56.8169 91.62 55.0977 90.2422C53.3791 88.8609 51.8773 87.6435 51.7637 87.5381C51.4826 87.2811 51.3857 87.0642 51.3857 86.7188C51.3899 86.2611 51.6031 85.9441 51.9443 85.8838C52.2058 85.84 52.9809 86.1284 53.4346 86.4375C53.6842 86.6107 54.9901 87.6672 57.1064 89.4141C59.3357 91.2577 59.1957 91.1455 59.4648 91.2861C60.2881 91.7115 61.2235 91.5712 61.8701 90.9248C62.372 90.4227 62.6054 89.7677 62.6094 88.8359C62.6134 88.3059 62.6098 88.2854 62.4854 88.0244C62.3086 87.6509 62.1277 87.4698 61.2725 86.8193C59.449 85.4296 56.2955 82.903 55.9814 82.5811C55.7326 82.3281 55.6641 82.1591 55.6641 81.8057C55.6682 81.2076 55.8934 81.003 56.5518 81.0029C56.8683 81.0029 56.9375 81.0147 57.0537 81.0947C57.1325 81.1489 58.5742 82.2971 60.2598 83.6455C61.9462 84.9987 63.4442 86.1717 63.5938 86.2568C63.8183 86.3812 63.8951 86.4053 64.0996 86.4014C64.4166 86.4013 64.5544 86.3247 64.9238 85.9473C65.3253 85.5336 65.6913 85.0155 65.9482 84.4775C66.2052 83.9476 66.2893 83.6418 66.3174 83.1279C66.3415 82.7063 66.3051 82.5292 66.1445 82.2803C66.0883 82.1919 64.9394 81.1958 63.4492 79.9346C62.0162 78.7263 60.7593 77.646 60.6533 77.5322C60.2235 77.0783 60.0225 76.7445 60.0225 76.4834C60.0225 76.1863 60.1836 75.9688 60.5049 75.8242C60.9344 75.6358 61.2722 75.6847 61.75 76.0059C62.0167 76.184 64.0729 77.9348 66.0283 79.6533C67.1564 80.6449 67.4019 80.818 67.7793 80.8662C68.0362 80.9022 68.3299 80.8054 68.7393 80.5566C69.47 80.1149 69.9612 79.6813 70.2344 79.2275C70.7523 78.3761 70.6553 77.5962 69.9404 76.8652C69.7858 76.7069 66.0673 73.4375 62.9951 70.7549C57.5228 65.9731 57.1824 65.6853 56.9775 65.5928C56.6404 65.4403 56.4384 65.4367 55.4229 65.5771C54.1538 65.7458 52.7961 65.9508 51.6475 66.1436C50.6192 66.3122 50.385 66.3812 49.373 66.7988C48.6384 67.1039 48.152 67.2238 47.5498 67.252C46.5778 67.2961 45.7054 67.035 44.7334 66.4004C44.3199 66.1313 44.0071 65.8139 43.8545 65.5127C43.7541 65.3078 43.7334 65.2313 43.7334 64.9541C43.7334 64.6654 43.7497 64.6005 43.8701 64.3516C44.059 63.9742 44.4089 63.6321 45.501 62.7568C45.9865 62.3676 46.5045 61.9462 46.6455 61.8174C47.304 61.2231 47.538 61.0543 48.0762 60.7812C48.807 60.4159 49.4781 60.2508 50.8232 60.1143C51.2773 60.07 52.2495 59.9491 52.9844 59.8447C54.2654 59.664 54.3184 59.6556 54.3184 59.5713C54.319 59.4795 54.4695 59.4983 51.8281 59.2178C51.551 59.1897 50.8077 59.1698 49.9805 59.1738C48.6109 59.1738 47.9232 59.2144 46.5459 59.375C45.0522 59.5436 41.1055 60.1534 40.6807 60.2783C40.3275 60.3827 39.9215 60.5957 39.7285 60.7764C39.3429 61.1339 39.2379 61.3036 38.29 63.0869C37.6794 64.2278 36.5309 66.3047 34.9043 69.1924C34.0657 70.6809 33.3474 72.0017 33.3057 72.1289C33.2374 72.3458 33.2372 72.37 33.3135 72.7715C33.438 73.4343 33.8801 75.4751 33.9082 75.5273C33.9287 75.5631 34.0936 75.4626 34.4346 75.2139C35.2937 74.5877 35.6959 74.4346 36.4629 74.4346C36.828 74.4346 36.9974 74.4545 37.166 74.5107C37.941 74.7719 38.5434 75.3912 38.7764 76.1543C38.8446 76.3751 38.8608 76.5037 38.8447 76.8408C38.8327 77.2302 38.8204 77.275 38.6641 77.5918C38.4793 77.9613 38.4668 77.9821 36.9688 79.5967C35.2064 81.4995 33.6364 83.162 33.458 83.3125C33.0484 83.6619 32.4978 83.8346 31.8633 83.8066C31.3452 83.7825 30.963 83.6617 30.5654 83.3887C30.2323 83.1598 30.0156 82.9147 29.835 82.5615C29.6542 82.2 29.602 81.9186 29.6221 81.4287C29.6422 80.9871 29.718 80.7135 29.9668 80.2197C30.2037 79.7459 30.3771 79.5161 31.4775 78.2148C31.8506 77.7736 32.1877 77.34 32.2285 77.251C32.3689 76.9458 32.3211 76.5991 31.9355 75.0771C31.7549 74.3668 31.7059 74.2458 31.5615 74.1494C31.5042 74.1129 31.1388 73.9722 30.7461 73.8359C29.931 73.5508 29.685 73.4179 27.8096 72.2773C26.6532 71.5707 26.3515 71.4017 25.7051 71.1006C25.1507 70.8395 24.9535 70.5742 25.0098 70.1484C25.0784 69.6257 26.0867 67.4408 27.4521 64.8545C28.9424 62.0346 30.4938 59.4031 31.9961 57.1416C32.498 56.3827 32.7911 56.0006 33.2891 55.4424C33.8833 54.776 34.3616 54.5144 34.8193 54.6025C34.9358 54.6267 35.125 54.6948 35.2334 54.751C35.6837 54.9763 37.2824 56.2857 38.7041 57.5869C39.7202 58.5227 39.8853 58.5636 41.4033 58.2705C45.3036 57.5154 48.1644 57.2132 50.8477 57.2734C52.7193 57.3176 54.0815 57.519 55.3428 57.9287C56.146 58.1938 56.6208 58.4069 57.4482 58.8809C57.9055 59.1456 57.9701 59.1696 58.2109 59.1816C58.5281 59.1976 58.7656 59.1136 59.0186 58.8848C59.112 58.799 59.6502 58.141 60.2158 57.4229C61.9229 55.2578 63.1363 53.7788 63.4336 53.5137C63.5299 53.4255 63.6622 53.3328 63.7344 53.3008ZM43.6738 81.7461C44.5212 81.5936 45.2449 81.7379 45.8232 82.1797C46.4657 82.6657 46.7664 83.4738 46.5898 84.2168C46.4614 84.7505 46.4763 84.7322 42.7178 89.1172C41.7787 90.2088 40.9319 91.1928 40.8262 91.2988C40.1635 91.9977 39.3715 92.3066 38.6445 92.1582C37.5318 91.9292 36.6886 90.9126 36.6846 89.7959C36.6847 89.2938 36.8971 88.6868 37.2305 88.249C37.7426 87.5761 41.8868 82.9063 42.3848 82.4404C42.7822 82.0672 43.2242 81.8304 43.6738 81.7461ZM39.8896 78.1104C40.1831 78.0543 40.7694 78.0942 41.0625 78.1865C41.5684 78.3473 42.0345 78.7533 42.3076 79.2793C42.5124 79.6728 42.5888 79.9744 42.5889 80.3799C42.5889 80.7694 42.5088 81.0636 42.3281 81.3447C42.1982 81.5431 39.8367 84.2574 37.584 86.7871L36.4229 88.0928L35.9854 88.3096L35.5469 88.5264L35.2012 88.458C34.9925 88.4178 34.7232 88.3258 34.5186 88.2295C33.904 87.9322 33.3857 87.3054 33.209 86.6426C33.1247 86.3332 33.1246 85.7146 33.209 85.4014C33.4743 84.389 34.764 82.7617 37.9492 79.4199C38.411 78.934 38.8048 78.5601 38.9453 78.4678C39.1904 78.3112 39.5604 78.1706 39.8896 78.1104ZM34.6387 56.7275C32.3892 59.7804 30.4045 63.1509 27.9141 68.1357C27.3326 69.2986 27.1395 69.7176 27.1748 69.7471C27.2068 69.7694 28.0734 70.2788 29.1113 70.8799C30.1505 71.4817 31.0379 71.999 31.0879 72.0322C31.168 72.0883 31.1847 72.0638 31.6543 71.2129C31.9201 70.7297 33.3304 68.167 34.7881 65.5166C36.2421 62.8657 37.5356 60.5394 37.6602 60.3506C37.7845 60.1619 37.9084 59.9207 37.9365 59.8164C37.9846 59.6401 37.9809 59.6157 37.8887 59.4473C37.8284 59.3308 37.6636 59.1538 37.4307 58.957C37.2297 58.7882 36.6392 58.2497 36.1211 57.7598C35.6032 57.274 35.093 56.7997 34.9922 56.707C34.8944 56.6171 34.8039 56.5428 34.792 56.5391C34.784 56.5431 34.7149 56.6273 34.6387 56.7275ZM64.1279 55.7354C63.9755 55.7354 63.9669 55.7484 63.0518 56.8281C61.6337 58.5113 61.1353 59.1099 61.1514 59.126C61.1775 59.1449 63.4086 60.9871 66.1211 63.2314C68.8463 65.4791 71.0861 67.3262 71.1016 67.333C71.1216 67.3285 71.3857 67.0602 71.6924 66.7256C72.4436 65.9141 73.9616 64.2528 74.0547 64.1436C74.1267 64.0635 74.1217 64.0543 73.6729 63.6855C73.4238 63.4767 72.4875 62.6491 71.5918 61.8418C69.72 60.1587 68.7877 59.3426 67.7354 58.4629C66.5511 57.4753 64.552 55.874 64.4131 55.7998C64.3409 55.7638 64.2162 55.7354 64.1279 55.7354ZM34 8C35.2426 8 36.25 9.00736 36.25 10.25C36.25 11.4926 35.2426 12.5 34 12.5H33C30.9289 12.5 29.25 14.1789 29.25 16.25V57.25C29.25 58.4926 28.2426 59.5 27 59.5C25.7574 59.5 24.75 58.4926 24.75 57.25V16.25C24.75 11.6937 28.4437 8 33 8H34ZM69 8C73.5564 8 77.25 11.6937 77.25 16.25V57.25C77.25 58.4926 76.2426 59.5 75 59.5C73.7574 59.5 72.75 58.4926 72.75 57.25V16.25C72.75 14.1789 71.0711 12.5 69 12.5H68C66.7574 12.5 65.75 11.4926 65.75 10.25C65.75 9.00736 66.7574 8 68 8H69ZM50.1143 22.1816C50.7202 21.9221 51.4123 21.9406 52.0059 22.2373L66.0059 29.2373C66.0171 29.2429 66.028 29.2491 66.0391 29.2549C66.0616 29.2666 66.0834 29.2795 66.1055 29.292C66.142 29.3126 66.1778 29.334 66.2129 29.3564C66.2276 29.3659 66.2433 29.374 66.2578 29.3838L66.2783 29.3984C66.3252 29.4308 66.3701 29.4654 66.4141 29.501C66.4317 29.5152 66.4487 29.5302 66.4658 29.5449C66.5 29.5743 66.5332 29.6045 66.5654 29.6357C66.579 29.6489 66.5922 29.6623 66.6055 29.6758C66.6396 29.7106 66.6724 29.7464 66.7041 29.7832C66.7263 29.809 66.7475 29.8355 66.7686 29.8623C66.7947 29.8956 66.8205 29.9291 66.8447 29.9639C66.8598 29.9854 66.8744 30.0072 66.8887 30.0293C66.9122 30.0658 66.9346 30.1029 66.9561 30.1406C66.9655 30.1572 66.9754 30.1736 66.9844 30.1904C67.013 30.244 67.0393 30.2987 67.0635 30.3545C67.0719 30.3738 67.0791 30.3935 67.0869 30.4131C67.105 30.4581 67.1216 30.5036 67.1367 30.5498C67.142 30.566 67.1474 30.5822 67.1523 30.5986C67.1705 30.6584 67.1871 30.7188 67.2002 30.7803C67.2042 30.799 67.2065 30.818 67.21 30.8369C67.219 30.885 67.2266 30.9335 67.2324 30.9824C67.2351 31.0048 67.2373 31.0272 67.2393 31.0498C67.2452 31.116 67.25 31.1827 67.25 31.25V46.25C67.25 47.1022 66.7681 47.8816 66.0059 48.2627L52.0059 55.2627C51.9692 55.281 51.9319 55.2973 51.8945 55.3135C51.8762 55.3214 51.8575 55.3285 51.8389 55.3359C51.7918 55.3549 51.7443 55.3721 51.6963 55.3877C51.6829 55.3921 51.6698 55.3973 51.6562 55.4014C51.6011 55.4182 51.5453 55.4318 51.4893 55.4443C51.4318 55.4571 51.3735 55.4663 51.3145 55.4746C51.2909 55.4779 51.2677 55.4828 51.2441 55.4854C51.1639 55.494 51.0825 55.5 51 55.5C50.9171 55.5 50.8354 55.4941 50.7549 55.4854C50.7313 55.4828 50.7081 55.4779 50.6846 55.4746C50.6255 55.4663 50.5672 55.4571 50.5098 55.4443C50.4538 55.4318 50.3979 55.4182 50.3428 55.4014C50.3293 55.3972 50.3161 55.3921 50.3027 55.3877C50.2548 55.372 50.2072 55.3549 50.1602 55.3359C50.1416 55.3284 50.1228 55.3214 50.1045 55.3135C50.0675 55.2974 50.0305 55.2809 49.9941 55.2627L35.9941 48.2627C35.2319 47.8816 34.75 47.1022 34.75 46.25V31.25C34.75 31.1827 34.7539 31.116 34.7598 31.0498C34.7618 31.0272 34.764 31.0048 34.7666 30.9824C34.7725 30.9335 34.7801 30.885 34.7891 30.8369C34.7926 30.818 34.7958 30.799 34.7998 30.7803C34.8129 30.7189 34.8286 30.6583 34.8467 30.5986C34.8516 30.5822 34.857 30.566 34.8623 30.5498C34.8774 30.5036 34.8941 30.4581 34.9121 30.4131C34.92 30.3935 34.9272 30.3738 34.9355 30.3545C34.9597 30.2987 34.9861 30.2439 35.0146 30.1904C35.0237 30.1736 35.0335 30.1572 35.043 30.1406C35.0645 30.1027 35.0877 30.0659 35.1113 30.0293C35.1255 30.0074 35.1394 29.9853 35.1543 29.9639C35.1785 29.9291 35.2043 29.8956 35.2305 29.8623C35.2515 29.8355 35.2727 29.809 35.2949 29.7832C35.3266 29.7464 35.3595 29.7106 35.3936 29.6758C35.4068 29.6623 35.42 29.6489 35.4336 29.6357C35.4658 29.6045 35.4991 29.5743 35.5332 29.5449C35.5504 29.5302 35.5674 29.5152 35.585 29.501C35.6311 29.4637 35.6783 29.4273 35.7275 29.3936C35.7466 29.3805 35.7667 29.3689 35.7861 29.3564C35.8212 29.334 35.8571 29.3126 35.8936 29.292C35.9156 29.2795 35.9375 29.2666 35.96 29.2549C35.9713 29.249 35.9827 29.243 35.9941 29.2373L49.9941 22.2373L50.1143 22.1816ZM8.65918 34.6592C9.53785 33.7805 10.9622 33.7805 11.8408 34.6592C12.7194 35.5379 12.7194 36.9622 11.8408 37.8408L7.68164 42H18.25C19.4926 42 20.5 43.0074 20.5 44.25C20.4999 45.4926 19.4926 46.5 18.25 46.5H7.68164L11.8408 50.6592C12.7194 51.5379 12.7194 52.9622 11.8408 53.8408C10.9622 54.7194 9.53784 54.7194 8.65918 53.8408L0.65918 45.8408C0.606206 45.7878 0.556292 45.7318 0.508789 45.6738C0.497426 45.66 0.487547 45.6449 0.476562 45.6309C0.396543 45.5282 0.324202 45.4195 0.262695 45.3037C0.251487 45.2826 0.241935 45.2607 0.231445 45.2393C0.209981 45.1956 0.188576 45.1517 0.169922 45.1064C0.156853 45.0747 0.14632 45.042 0.134766 45.0098C0.122401 44.9754 0.108365 44.9414 0.0976562 44.9062C0.0841528 44.8618 0.0741739 44.8165 0.0634766 44.7715C0.0572856 44.7455 0.0492186 44.7197 0.0439453 44.6934C0.0353499 44.6504 0.030486 44.6068 0.0244141 44.5635C0.0100971 44.4609 7.77316e-06 44.3565 0 44.25C4.73611e-06 44.1385 0.0107004 44.029 0.0263672 43.9219C0.031954 43.8838 0.0363994 43.8454 0.0439453 43.8076C0.0501872 43.7763 0.0588836 43.7457 0.0664062 43.7148C0.0763471 43.6741 0.085408 43.633 0.0976562 43.5928C0.108378 43.5576 0.122395 43.5237 0.134766 43.4893C0.146326 43.457 0.156843 43.4243 0.169922 43.3926C0.188588 43.3473 0.209972 43.3035 0.231445 43.2598C0.242063 43.2381 0.251337 43.2157 0.262695 43.1943C0.286324 43.1499 0.312414 43.107 0.338867 43.0645C0.351181 43.0446 0.362987 43.0244 0.375977 43.0049C0.458868 42.8804 0.553806 42.7646 0.65918 42.6592L8.65918 34.6592ZM90.6592 34.6592C91.5379 33.7805 92.9621 33.7805 93.8408 34.6592L101.841 42.6592C101.945 42.7631 102.038 42.8774 102.12 43C102.134 43.0211 102.147 43.043 102.16 43.0645C102.186 43.1066 102.212 43.1494 102.235 43.1934C102.251 43.2231 102.265 43.2539 102.279 43.2842C102.296 43.3182 102.313 43.3518 102.327 43.3867C102.346 43.4329 102.362 43.4802 102.378 43.5273C102.385 43.5488 102.394 43.57 102.4 43.5918C102.415 43.6405 102.427 43.6899 102.438 43.7393C102.443 43.7604 102.45 43.7813 102.454 43.8027C102.465 43.8548 102.472 43.9074 102.479 43.96C102.491 44.055 102.5 44.1517 102.5 44.25C102.5 44.343 102.491 44.4344 102.48 44.5244C102.473 44.5819 102.466 44.6394 102.454 44.6963C102.451 44.7098 102.447 44.7229 102.444 44.7363C102.432 44.7933 102.418 44.8502 102.401 44.9062C102.396 44.9255 102.387 44.9439 102.381 44.9629C102.364 45.0137 102.347 45.0645 102.326 45.1143C102.314 45.1435 102.3 45.1716 102.286 45.2002C102.269 45.2372 102.252 45.2743 102.232 45.3105C102.18 45.4076 102.12 45.499 102.055 45.5869C102.032 45.6171 102.011 45.6485 101.987 45.6777C101.941 45.7342 101.892 45.7891 101.841 45.8408L93.8408 53.8408C92.9622 54.7194 91.5378 54.7194 90.6592 53.8408C89.7806 52.9622 89.7806 51.5379 90.6592 50.6592L94.8184 46.5H84.25C83.0074 46.5 82.0001 45.4926 82 44.25C82 43.0074 83.0074 42 84.25 42H94.8184L90.6592 37.8408C89.7806 36.9622 89.7806 35.5379 90.6592 34.6592ZM39.25 44.8594L48.75 49.6094V39.6406L39.25 34.8906V44.8594ZM53.25 39.6406V49.6094L62.75 44.8594V34.8906L53.25 39.6406ZM42.0312 31.25L51 35.7344L59.9688 31.25L51 26.7656L42.0312 31.25ZM61 0C63.3472 0 65.25 1.90279 65.25 4.25V12.25C65.25 14.5972 63.3472 16.5 61 16.5H41C38.6528 16.5 36.75 14.5972 36.75 12.25V4.25C36.75 1.90279 38.6528 0 41 0H61ZM41.25 12H60.75V4.5H41.25V12Z" fill="#1B2E4C"/>
</svg>
