<svg width="40" height="37" viewBox="0 0 40 37" fill="none" xmlns="http://www.w3.org/2000/svg">
<path d="M31.6667 3.36211H20.7867C20.53 3.36211 20.27 3.30156 20.0417 3.18551L14.7817 0.531479C14.09 0.183327 13.3183 5.62163e-07 12.5467 5.62163e-07H8.33333C3.73833 -0.00168133 0 3.77081 0 8.40779V28.5905C0 33.2275 3.73833 37 8.33333 37H10C10.92 37 11.6667 36.2482 11.6667 35.3181C11.6667 34.388 10.92 33.6362 10 33.6362H8.33333C5.57667 33.6362 3.33333 31.3724 3.33333 28.5905V13.4535H36.6667V28.5905C36.6667 31.3724 34.4233 33.6362 31.6667 33.6362H30C29.0783 33.6362 28.3333 34.388 28.3333 35.3181C28.3333 36.2482 29.0783 37 30 37H31.6667C36.2617 37 40 33.2275 40 28.5905V11.7716C40 7.1346 36.2617 3.36211 31.6667 3.36211ZM3.33333 8.40779C3.33333 5.62594 5.57667 3.36211 8.33333 3.36211H12.5467C12.8033 3.36211 13.0633 3.42266 13.2917 3.53871L18.5517 6.19274C19.2433 6.54089 20.015 6.72422 20.7867 6.72422H31.6667C33.8367 6.72422 35.67 8.13532 36.36 10.088H3.33333V8.40779ZM26.1783 30.449C26.83 31.1066 26.83 32.1696 26.1783 32.8272L23.49 35.5401C22.5283 36.5106 21.265 36.995 20 36.995C18.735 36.995 17.4733 36.5106 16.5117 35.5401L13.8217 32.8272C13.17 32.1696 13.17 31.1066 13.8217 30.449C14.4733 29.7914 15.5267 29.7914 16.1783 30.449L18.3333 32.6237V20.1811C18.3333 19.251 19.08 18.4992 20 18.4992C20.92 18.4992 21.6667 19.251 21.6667 20.1811V32.6237L23.8217 30.449C24.4733 29.7914 25.5267 29.7914 26.1783 30.449Z" fill="black"/>
</svg>
