<svg width="60" height="40" viewBox="0 0 60 40" fill="none" xmlns="http://www.w3.org/2000/svg">
<path d="M2.84082 40H0L12.7002 17.8193H15.124L2.84082 40ZM50.0508 40H42.9482L28.3262 14.8838L13.9541 40H7.01855C7.21909 39.6086 21.3074 14.5036 28.3262 2L50.0508 40ZM32.1689 27.4424L25.2344 40H19.0508L29.1611 22.876L32.1689 27.4424ZM58.6514 40H52.2451V11.0205H58.6514V40ZM56.7129 3.10156L60 4.73438L56.7129 6.12207L55.2793 9.06152C55.2793 9.06152 54.3802 6.99282 53.9307 6.12207L50.3906 4.73438L53.9307 3.10156L55.2793 0L56.7129 3.10156Z" fill="#F8C35B"/>
</svg>
